<svg xmlns="http://www.w3.org/2000/svg" viewBox="0 0 1200 2400" width="1200" height="2400" font-family="'Arial Black','Helvetica Neue',Arial,sans-serif">
  <!-- ====== "WE'VE MOVED" REDIRECT / WAYFINDER — place at OLD spot (Gayathri Devi Park). Print on weatherproof FLEX. ====== -->
  <defs>
    <linearGradient id="bg2" x1="0" y1="0" x2="0" y2="1">
      <stop offset="0" stop-color="#123a1a"/><stop offset="0.55" stop-color="#0e2f16"/><stop offset="1" stop-color="#0a2410"/>
    </linearGradient>
    <linearGradient id="gold2" x1="0" y1="0" x2="0" y2="1"><stop offset="0" stop-color="#ffe27a"/><stop offset="1" stop-color="#f6941d"/></linearGradient>
    <filter id="soft2" x="-20%" y="-20%" width="140%" height="140%"><feDropShadow dx="0" dy="6" stdDeviation="10" flood-color="#000000" flood-opacity="0.4"/></filter>
  </defs>

  <rect width="1200" height="2400" fill="url(#bg2)"/>
  <rect x="34" y="34" width="1132" height="2332" fill="none" stroke="url(#gold2)" stroke-width="6" rx="26"/>

  <!-- Emblem -->
  <svg xmlns="http://www.w3.org/2000/svg" x="445" y="28" width="310" height="310" viewBox="0 0 600 600" font-family="'Arial Black','Helvetica Neue',Arial,sans-serif">
  <!-- ===== SRI LAKSHMI VENKATESHWARA CHATS CENTRE — Emblem logo ===== -->
  <defs>
    <linearGradient id="lg-gold" x1="0" y1="0" x2="0" y2="1">
      <stop offset="0" stop-color="#ffe27a"/><stop offset="1" stop-color="#f6941d"/>
    </linearGradient>
    <linearGradient id="lg-leaf" x1="0" y1="0" x2="1" y2="1">
      <stop offset="0" stop-color="#3f9e3f"/><stop offset="1" stop-color="#237a23"/>
    </linearGradient>
    <radialGradient id="lg-field" cx="0.5" cy="0.42" r="0.62">
      <stop offset="0" stop-color="#6a1a18"/><stop offset="1" stop-color="#4a1010"/>
    </radialGradient>
    <path id="arcTop" d="M 42,300 A 258,258 0 0 1 558,300" fill="none"/>
    <path id="arcBot" d="M 42,300 A 258,258 0 0 0 558,300" fill="none"/>
  </defs>

  <!-- Seal rings -->
  <circle cx="300" cy="300" r="298" fill="#360a0a"/>
  <circle cx="300" cy="300" r="290" fill="#4a1010"/>
  <circle cx="300" cy="300" r="292" fill="none" stroke="url(#lg-gold)" stroke-width="5"/>
  <circle cx="300" cy="300" r="232" fill="url(#lg-field)"/>
  <circle cx="300" cy="300" r="232" fill="none" stroke="url(#lg-gold)" stroke-width="4"/>
  <circle cx="300" cy="300" r="222" fill="none" stroke="#ffb627" stroke-width="1.5" stroke-opacity="0.55"/>

  <!-- Curved text -->
  <text fill="url(#lg-gold)" font-size="35" letter-spacing="2" font-weight="800">
    <textPath href="#arcTop" startOffset="50%" text-anchor="middle">SRI LAKSHMI VENKATESHWARA</textPath>
  </text>
  <text fill="#ffd447" font-size="29" letter-spacing="3" font-family="'Trebuchet MS',Arial,sans-serif">
    <textPath href="#arcBot" startOffset="50%" text-anchor="middle">MARIYAPPANA PALYA · BENGALURU</textPath>
  </text>

  <!-- Side separators -->
  <g fill="url(#lg-gold)">
    <path d="M 300,44 l 10,10 -10,10 -10,-10 z" transform="translate(-256,246)"/>
    <path d="M 300,44 l 10,10 -10,10 -10,-10 z" transform="translate(256,246)"/>
  </g>

  <!-- Center mark: tilak + leaf plate with pani puris -->
  <text x="300" y="168" text-anchor="middle" font-size="30" fill="#ffd447" font-family="'Noto Sans Kannada','Kannada Sangam MN',sans-serif">ಶ್ರೀ</text>

  <g transform="translate(300 292)">
    <ellipse cx="0" cy="46" rx="120" ry="20" fill="#000" opacity="0.22"/>
    <ellipse cx="0" cy="24" rx="126" ry="46" fill="url(#lg-leaf)"/>
    <ellipse cx="0" cy="24" rx="126" ry="46" fill="none" stroke="#1c5c1c" stroke-width="3"/>
    <g stroke="#b5761f" stroke-width="3">
      <g transform="translate(-72 6)"><circle r="34" fill="#e7a54e"/><ellipse cx="-10" cy="-12" rx="10" ry="6" fill="#ffe0a3" stroke="none"/><circle cx="0" cy="-34" r="8" fill="#2f9e44" stroke="none"/></g>
      <g transform="translate(0 -6)"><circle r="40" fill="#eaa94f"/><ellipse cx="-12" cy="-14" rx="12" ry="7" fill="#ffe0a3" stroke="none"/><circle cx="0" cy="-40" r="9" fill="#e63914" stroke="none"/></g>
      <g transform="translate(72 6)"><circle r="34" fill="#e7a54e"/><ellipse cx="-10" cy="-12" rx="10" ry="6" fill="#ffe0a3" stroke="none"/><circle cx="0" cy="-34" r="8" fill="#2f9e44" stroke="none"/></g>
    </g>
    <circle cx="-40" cy="44" r="4" fill="#ffd447"/><circle cx="26" cy="48" r="4" fill="#e63914"/><circle cx="56" cy="44" r="4" fill="#2f9e44"/>
  </g>

  <!-- Ribbon -->
  <g transform="translate(300 392)">
    <rect x="-150" y="0" width="300" height="52" rx="26" fill="url(#lg-gold)"/>
    <text x="0" y="35" text-anchor="middle" font-size="28" fill="#4a1010" letter-spacing="2" font-weight="800">CHATS CENTRE</text>
  </g>
  <text x="300" y="470" text-anchor="middle" font-size="24" fill="#ffcf6b" font-family="'Trebuchet MS',Arial,sans-serif" letter-spacing="2">Fresh &amp; Tasty Chaats</text>
</svg>
  <line x1="150" y1="360" x2="1050" y2="360" stroke="#ffb627" stroke-width="3" stroke-opacity="0.5"/>

  <!-- Headline -->
  <text x="600" y="486" text-anchor="middle" font-size="120" fill="#ffd447">WE'VE MOVED!</text>
  <text x="600" y="556" text-anchor="middle" font-size="48" fill="#ffffff" font-family="'Noto Sans Kannada','Kannada Sangam MN',sans-serif">ನಾವು ಸ್ಥಳಾಂತರಗೊಂಡಿದ್ದೇವೆ!</text>
  <text x="600" y="628" text-anchor="middle" font-size="40" fill="#ffd447">Now opposite Atal Bihari Vajpayee Badminton Centre</text>
  <text x="600" y="672" text-anchor="middle" font-size="28" fill="#ffcf6b" font-family="'Noto Sans Kannada','Kannada Sangam MN',sans-serif">ಅಟಲ್ ಬಿಹಾರಿ ವಾಜಪೇಯಿ ಬ್ಯಾಡ್ಮಿಂಟನ್ ಸೆಂಟರ್ ಎದುರುಗಡೆ</text>

  <!-- How to walk heading -->
  <text x="600" y="748" text-anchor="middle" font-size="44" fill="#ffffff">🚶 HOW TO WALK HERE · ದಾರಿ</text>

  <!-- Directions map -->
  <rect x="146" y="778" width="908" height="629" rx="16" fill="none" stroke="url(#gold2)" stroke-width="5"/>
  <svg x="150" y="783" width="900" height="619" viewBox="0 0 960 660"><!-- ===== "How to reach us" map — matches Google Maps. North up. MKK Rd (top); Park (right, big green); Shop (left, below MKK) ===== -->
  <defs>
    <marker id="ahG" markerUnits="userSpaceOnUse" markerWidth="32" markerHeight="32" refX="19" refY="15" orient="auto"><path d="M3,3 L28,15 L3,27 L11,15 z" fill="#1f9d55"/></marker>
    <marker id="ahT" markerUnits="userSpaceOnUse" markerWidth="32" markerHeight="32" refX="19" refY="15" orient="auto"><path d="M3,3 L28,15 L3,27 L11,15 z" fill="#0e7f95"/></marker>
    <linearGradient id="mgold" x1="0" y1="0" x2="0" y2="1"><stop offset="0" stop-color="#ffe27a"/><stop offset="1" stop-color="#f6941d"/></linearGradient>
  </defs>

  <rect width="960" height="660" rx="20" fill="#fbf1d8"/>

  <!-- Compass -->
  <g transform="translate(70 66)"><circle r="26" fill="#fff" stroke="#c8ad72" stroke-width="2"/><path d="M0 -18 L7 4 L0 -2 L-7 4 Z" fill="#c0341d"/><text x="0" y="22" text-anchor="middle" font-size="13" font-weight="800" fill="#7a5a1e">N</text></g>

  <!-- PARK (big green, right side, along MKK Rd) -->
  <rect x="560" y="112" width="372" height="430" rx="10" fill="#bfe3b6" stroke="#8cc47f" stroke-width="2"/>
  <text x="746" y="180" text-anchor="middle" font-size="26">🌳</text>
  <text x="746" y="214" text-anchor="middle" font-size="21" font-weight="800" fill="#2f6a2f">Gayathri Devi</text>
  <text x="746" y="240" text-anchor="middle" font-size="21" font-weight="800" fill="#2f6a2f">Park</text>
  <text x="746" y="266" text-anchor="middle" font-size="14" fill="#4b7a2e">(Mariyappanapalya Park)</text>

  <!-- ROADS -->
  <g stroke="#c8ad72" stroke-width="2">
    <rect x="30" y="44" width="900" height="60" fill="#e2cf9f"/>              <!-- MKK Rd (top / north) -->
    <rect x="266" y="104" width="52" height="242" fill="#e8d5a8"/>          <!-- road up to MKK -->
    <rect x="30" y="318" width="600" height="54" fill="#e8d5a8"/>            <!-- Cross road (shop <-> park) -->
  </g>
  <g stroke="#fff4d6" stroke-width="3" stroke-dasharray="18 16">
    <line x1="30" y1="74" x2="930" y2="74"/>
    <line x1="30" y1="345" x2="630" y2="345"/>
  </g>
  <text x="300" y="84" text-anchor="middle" font-size="24" font-weight="800" fill="#7a5a1e" letter-spacing="1">MKK ROAD · ಮಹಾಕವಿ ಕುವೆಂಪು ರಸ್ತೆ</text>
  <rect x="560" y="322" width="20" height="46" rx="6" fill="#fff2cf" stroke="#c8ad72"/>
  <text x="558" y="392" text-anchor="middle" font-size="13" font-weight="700" fill="#4b7a2e">Park Main Entrance</text>

  <!-- SPORTS / BADMINTON CENTRE (below the shop) -->
  <rect x="150" y="452" width="286" height="98" rx="12" fill="#e9ecf1" stroke="#b9c1cc" stroke-width="2"/>
  <text x="293" y="488" text-anchor="middle" font-size="26">🏸</text>
  <text x="293" y="514" text-anchor="middle" font-size="15.5" font-weight="700" fill="#3a4351">Atal Bihari Vajpayee</text>
  <text x="293" y="533" text-anchor="middle" font-size="14" fill="#5a6472">Sports Centre</text>

  <!-- Sagar Hotel landmark -->
  <g transform="translate(74 452)"><circle cx="16" cy="16" r="16" fill="#f6941d"/><text x="16" y="22" text-anchor="middle" font-size="17">🍽️</text><text x="40" y="14" font-size="15" font-weight="800" fill="#b35a10">Sagar</text><text x="40" y="31" font-size="12" fill="#8a6a2e">Hotel</text></g>

  <!-- ROUTE 2 (teal): from MKK Road (top) down to shop -->
  <path d="M292 106 C 292 190, 292 260, 300 320" fill="none" stroke="#0e7f95" stroke-width="8" stroke-linecap="round" stroke-dasharray="1 17" marker-end="url(#ahT)"/>
  <g transform="translate(330 150)">
    <rect x="0" y="0" width="214" height="54" rx="14" fill="#0e7f95"/>
    <circle cx="26" cy="27" r="15" fill="#fff"/><text x="26" y="34" text-anchor="middle" font-size="19" font-weight="800" fill="#0e7f95">2</text>
    <text x="48" y="24" font-size="16" font-weight="800" fill="#fff">From MKK Road</text>
    <text x="48" y="43" font-size="13" fill="#d8f6fb">walk ~100 m</text>
  </g>

  <!-- ROUTE 1 (green): from Park (right) along the cross road to shop -->
  <path d="M556 344 C 480 346, 420 346, 350 346" fill="none" stroke="#1f9d55" stroke-width="8" stroke-linecap="round" stroke-dasharray="1 17" marker-end="url(#ahG)"/>
  <g transform="translate(610 430)">
    <rect x="0" y="0" width="196" height="54" rx="14" fill="#1f9d55"/>
    <circle cx="26" cy="27" r="15" fill="#fff"/><text x="26" y="34" text-anchor="middle" font-size="19" font-weight="800" fill="#1f9d55">1</text>
    <text x="48" y="24" font-size="16" font-weight="800" fill="#fff">From the Park</text>
    <text x="48" y="43" font-size="13" fill="#dfffe9">walk ~50 m</text>
  </g>

  <!-- SHOP marker (left, below MKK, west of Park) -->
  <g transform="translate(292 344)">
    <ellipse cx="0" cy="70" rx="60" ry="12" fill="#000" opacity="0.14"/>
    <path d="M0 78 C -34 34, -46 20, -46 -6 A 46 46 0 1 1 46 -6 C 46 20 34 34 0 78 Z" fill="url(#mgold)" stroke="#b5761f" stroke-width="3"/>
    <circle cx="0" cy="-8" r="30" fill="#4a1010"/>
    <path d="M0 -30 l7 15 16 2 -12 12 3 16 -14 -8 -14 8 3 -16 -12 -12 16 -2 z" fill="#ffd447"/>
  </g>
  <g transform="translate(166 250)">
    <rect x="0" y="0" width="256" height="60" rx="14" fill="#4a1010"/>
    <text x="128" y="26" text-anchor="middle" font-size="16" font-weight="800" fill="#ffd447">★ WE ARE HERE — SLV Chats</text>
    <text x="128" y="48" text-anchor="middle" font-size="13.5" fill="#fff6e6">on your right · ಬಲಗಡೆ</text>
  </g></svg>

  <!-- Two route step-cards -->
  <g>
    <rect x="70" y="1450" width="524" height="392" rx="18" fill="#ffffff" opacity="0.08"/>
    <rect x="70" y="1450" width="524" height="66" rx="18" fill="#2f9e44"/>
    <text x="332" y="1494" text-anchor="middle" font-size="32" fill="#ffffff" letter-spacing="1">① FROM THE PARK</text>
    <g font-family="'Trebuchet MS',Arial,sans-serif" font-size="31" fill="#eafff0">
      <text x="100" y="1580">⬆  Straight to Park entrance</text>
      <text x="100" y="1645">↱  Take the 1st right</text>
      <text x="100" y="1710">🚶  Walk about 50 metres</text>
      <text x="100" y="1775" fill="#ffd447" font-weight="700">★  Shop is on your RIGHT</text>
    </g>
  </g>
  <g>
    <rect x="606" y="1450" width="524" height="392" rx="18" fill="#ffffff" opacity="0.08"/>
    <rect x="606" y="1450" width="524" height="66" rx="18" fill="#0e7f95"/>
    <text x="868" y="1494" text-anchor="middle" font-size="32" fill="#ffffff" letter-spacing="1">② FROM MKK ROAD</text>
    <g font-family="'Trebuchet MS',Arial,sans-serif" font-size="31" fill="#e6f8fc">
      <text x="636" y="1580">↰  Turn left onto MKK Road</text>
      <text x="636" y="1645">🚶  Walk about 100 metres</text>
      <text x="636" y="1710">↰  Take the 1st left</text>
      <text x="636" y="1775" fill="#ffd447" font-weight="700">★  Shop is on your RIGHT</text>
    </g>
  </g>

  <!-- Contact + QR -->
  <g transform="translate(70 1900)">
    <rect x="0" y="0" width="700" height="160" rx="20" fill="#ffffff" opacity="0.08"/>
    <text x="40" y="64" font-size="34" fill="#ffd447" font-family="Arial,sans-serif">📞 Call / WhatsApp</text>
    <text x="40" y="130" font-size="66" fill="#ffffff" font-family="'Arial Black',Arial,sans-serif">90363 79288</text>
  </g>
  <rect x="806" y="1900" width="184" height="184" rx="14" fill="#fff6e6"/>
  <svg x="814" y="1908" width="168" height="168" viewBox="0 0 45 45"><rect width="45" height="45" fill="#ffffff"/><g fill="#1a0606" shape-rendering="crispEdges"><rect x="4" y="4" width="1" height="1"/><rect x="5" y="4" width="1" height="1"/><rect x="6" y="4" width="1" height="1"/><rect x="7" y="4" width="1" height="1"/><rect x="8" y="4" width="1" height="1"/><rect x="9" y="4" width="1" height="1"/><rect x="10" y="4" width="1" height="1"/><rect x="12" y="4" width="1" height="1"/><rect x="13" y="4" width="1" height="1"/><rect x="16" y="4" width="1" height="1"/><rect x="18" y="4" width="1" height="1"/><rect x="21" y="4" width="1" height="1"/><rect x="22" y="4" width="1" height="1"/><rect x="23" y="4" width="1" height="1"/><rect x="25" y="4" width="1" height="1"/><rect x="28" y="4" width="1" height="1"/><rect x="29" y="4" width="1" height="1"/><rect x="32" y="4" width="1" height="1"/><rect x="34" y="4" width="1" height="1"/><rect x="35" y="4" width="1" height="1"/><rect x="36" y="4" width="1" height="1"/><rect x="37" y="4" width="1" height="1"/><rect x="38" y="4" width="1" height="1"/><rect x="39" y="4" width="1" height="1"/><rect x="40" y="4" width="1" height="1"/><rect x="4" y="5" width="1" height="1"/><rect x="10" y="5" width="1" height="1"/><rect x="12" y="5" width="1" height="1"/><rect x="14" y="5" width="1" height="1"/><rect x="17" y="5" width="1" height="1"/><rect x="22" y="5" width="1" height="1"/><rect x="24" y="5" width="1" height="1"/><rect x="28" y="5" width="1" height="1"/><rect x="32" y="5" width="1" height="1"/><rect x="34" y="5" width="1" height="1"/><rect x="40" y="5" width="1" height="1"/><rect x="4" y="6" width="1" height="1"/><rect x="6" y="6" width="1" height="1"/><rect x="7" y="6" width="1" height="1"/><rect x="8" y="6" width="1" height="1"/><rect x="10" y="6" width="1" height="1"/><rect x="12" y="6" width="1" height="1"/><rect x="13" y="6" width="1" height="1"/><rect x="17" y="6" width="1" height="1"/><rect x="20" y="6" width="1" height="1"/><rect x="24" y="6" width="1" height="1"/><rect x="25" y="6" width="1" height="1"/><rect x="29" y="6" width="1" height="1"/><rect x="30" y="6" width="1" height="1"/><rect x="31" y="6" width="1" height="1"/><rect x="32" y="6" width="1" height="1"/><rect x="34" y="6" width="1" height="1"/><rect x="36" y="6" width="1" height="1"/><rect x="37" y="6" width="1" height="1"/><rect x="38" y="6" width="1" height="1"/><rect x="40" y="6" width="1" height="1"/><rect x="4" y="7" width="1" height="1"/><rect x="6" y="7" width="1" height="1"/><rect x="7" y="7" width="1" height="1"/><rect x="8" y="7" width="1" height="1"/><rect x="10" y="7" width="1" height="1"/><rect x="19" y="7" width="1" height="1"/><rect x="21" y="7" width="1" height="1"/><rect x="23" y="7" width="1" height="1"/><rect x="24" y="7" width="1" height="1"/><rect x="25" y="7" width="1" height="1"/><rect x="28" y="7" width="1" height="1"/><rect x="29" y="7" width="1" height="1"/><rect x="31" y="7" width="1" height="1"/><rect x="32" y="7" width="1" height="1"/><rect x="34" y="7" width="1" height="1"/><rect x="36" y="7" width="1" height="1"/><rect x="37" y="7" width="1" height="1"/><rect x="38" y="7" width="1" height="1"/><rect x="40" y="7" width="1" height="1"/><rect x="4" y="8" width="1" height="1"/><rect x="6" y="8" width="1" height="1"/><rect x="7" y="8" width="1" height="1"/><rect x="8" y="8" width="1" height="1"/><rect x="10" y="8" width="1" height="1"/><rect x="12" y="8" width="1" height="1"/><rect x="13" y="8" width="1" height="1"/><rect x="15" y="8" width="1" height="1"/><rect x="18" y="8" width="1" height="1"/><rect x="21" y="8" width="1" height="1"/><rect x="23" y="8" width="1" height="1"/><rect x="26" y="8" width="1" height="1"/><rect x="30" y="8" width="1" height="1"/><rect x="32" y="8" width="1" height="1"/><rect x="34" y="8" width="1" height="1"/><rect x="36" y="8" width="1" height="1"/><rect x="37" y="8" width="1" height="1"/><rect x="38" y="8" width="1" height="1"/><rect x="40" y="8" width="1" height="1"/><rect x="4" y="9" width="1" height="1"/><rect x="10" y="9" width="1" height="1"/><rect x="18" y="9" width="1" height="1"/><rect x="19" y="9" width="1" height="1"/><rect x="20" y="9" width="1" height="1"/><rect x="21" y="9" width="1" height="1"/><rect x="22" y="9" width="1" height="1"/><rect x="24" y="9" width="1" height="1"/><rect x="26" y="9" width="1" height="1"/><rect x="27" y="9" width="1" height="1"/><rect x="29" y="9" width="1" height="1"/><rect x="30" y="9" width="1" height="1"/><rect x="34" y="9" width="1" height="1"/><rect x="40" y="9" width="1" height="1"/><rect x="4" y="10" width="1" height="1"/><rect x="5" y="10" width="1" height="1"/><rect x="6" y="10" width="1" height="1"/><rect x="7" y="10" width="1" height="1"/><rect x="8" y="10" width="1" height="1"/><rect x="9" y="10" width="1" height="1"/><rect x="10" y="10" width="1" height="1"/><rect x="12" y="10" width="1" height="1"/><rect x="14" y="10" width="1" height="1"/><rect x="16" y="10" width="1" height="1"/><rect x="18" y="10" width="1" height="1"/><rect x="20" y="10" width="1" height="1"/><rect x="22" y="10" width="1" height="1"/><rect x="24" y="10" width="1" height="1"/><rect x="26" y="10" width="1" height="1"/><rect x="28" y="10" width="1" height="1"/><rect x="30" y="10" width="1" height="1"/><rect x="32" y="10" width="1" height="1"/><rect x="34" y="10" width="1" height="1"/><rect x="35" y="10" width="1" height="1"/><rect x="36" y="10" width="1" height="1"/><rect x="37" y="10" width="1" height="1"/><rect x="38" y="10" width="1" height="1"/><rect x="39" y="10" width="1" height="1"/><rect x="40" y="10" width="1" height="1"/><rect x="13" y="11" width="1" height="1"/><rect x="14" y="11" width="1" height="1"/><rect x="16" y="11" width="1" height="1"/><rect x="18" y="11" width="1" height="1"/><rect x="20" y="11" width="1" height="1"/><rect x="26" y="11" width="1" height="1"/><rect x="29" y="11" width="1" height="1"/><rect x="31" y="11" width="1" height="1"/><rect x="32" y="11" width="1" height="1"/><rect x="4" y="12" width="1" height="1"/><rect x="7" y="12" width="1" height="1"/><rect x="8" y="12" width="1" height="1"/><rect x="9" y="12" width="1" height="1"/><rect x="10" y="12" width="1" height="1"/><rect x="11" y="12" width="1" height="1"/><rect x="12" y="12" width="1" height="1"/><rect x="14" y="12" width="1" height="1"/><rect x="16" y="12" width="1" height="1"/><rect x="19" y="12" width="1" height="1"/><rect x="20" y="12" width="1" height="1"/><rect x="22" y="12" width="1" height="1"/><rect x="24" y="12" width="1" height="1"/><rect x="26" y="12" width="1" height="1"/><rect x="27" y="12" width="1" height="1"/><rect x="33" y="12" width="1" height="1"/><rect x="36" y="12" width="1" height="1"/><rect x="38" y="12" width="1" height="1"/><rect x="39" y="12" width="1" height="1"/><rect x="40" y="12" width="1" height="1"/><rect x="4" y="13" width="1" height="1"/><rect x="5" y="13" width="1" height="1"/><rect x="7" y="13" width="1" height="1"/><rect x="8" y="13" width="1" height="1"/><rect x="9" y="13" width="1" height="1"/><rect x="12" y="13" width="1" height="1"/><rect x="13" y="13" width="1" height="1"/><rect x="14" y="13" width="1" height="1"/><rect x="17" y="13" width="1" height="1"/><rect x="18" y="13" width="1" height="1"/><rect x="24" y="13" width="1" height="1"/><rect x="27" y="13" width="1" height="1"/><rect x="28" y="13" width="1" height="1"/><rect x="29" y="13" width="1" height="1"/><rect x="31" y="13" width="1" height="1"/><rect x="32" y="13" width="1" height="1"/><rect x="33" y="13" width="1" height="1"/><rect x="36" y="13" width="1" height="1"/><rect x="37" y="13" width="1" height="1"/><rect x="39" y="13" width="1" height="1"/><rect x="5" y="14" width="1" height="1"/><rect x="10" y="14" width="1" height="1"/><rect x="15" y="14" width="1" height="1"/><rect x="16" y="14" width="1" height="1"/><rect x="17" y="14" width="1" height="1"/><rect x="21" y="14" width="1" height="1"/><rect x="22" y="14" width="1" height="1"/><rect x="25" y="14" width="1" height="1"/><rect x="27" y="14" width="1" height="1"/><rect x="31" y="14" width="1" height="1"/><rect x="32" y="14" width="1" height="1"/><rect x="34" y="14" width="1" height="1"/><rect x="35" y="14" width="1" height="1"/><rect x="36" y="14" width="1" height="1"/><rect x="37" y="14" width="1" height="1"/><rect x="38" y="14" width="1" height="1"/><rect x="40" y="14" width="1" height="1"/><rect x="6" y="15" width="1" height="1"/><rect x="8" y="15" width="1" height="1"/><rect x="9" y="15" width="1" height="1"/><rect x="11" y="15" width="1" height="1"/><rect x="14" y="15" width="1" height="1"/><rect x="17" y="15" width="1" height="1"/><rect x="18" y="15" width="1" height="1"/><rect x="19" y="15" width="1" height="1"/><rect x="21" y="15" width="1" height="1"/><rect x="22" y="15" width="1" height="1"/><rect x="26" y="15" width="1" height="1"/><rect x="27" y="15" width="1" height="1"/><rect x="31" y="15" width="1" height="1"/><rect x="35" y="15" width="1" height="1"/><rect x="36" y="15" width="1" height="1"/><rect x="37" y="15" width="1" height="1"/><rect x="38" y="15" width="1" height="1"/><rect x="39" y="15" width="1" height="1"/><rect x="40" y="15" width="1" height="1"/><rect x="4" y="16" width="1" height="1"/><rect x="7" y="16" width="1" height="1"/><rect x="8" y="16" width="1" height="1"/><rect x="10" y="16" width="1" height="1"/><rect x="11" y="16" width="1" height="1"/><rect x="12" y="16" width="1" height="1"/><rect x="14" y="16" width="1" height="1"/><rect x="18" y="16" width="1" height="1"/><rect x="23" y="16" width="1" height="1"/><rect x="27" y="16" width="1" height="1"/><rect x="28" y="16" width="1" height="1"/><rect x="31" y="16" width="1" height="1"/><rect x="32" y="16" width="1" height="1"/><rect x="34" y="16" width="1" height="1"/><rect x="37" y="16" width="1" height="1"/><rect x="40" y="16" width="1" height="1"/><rect x="5" y="17" width="1" height="1"/><rect x="7" y="17" width="1" height="1"/><rect x="9" y="17" width="1" height="1"/><rect x="12" y="17" width="1" height="1"/><rect x="17" y="17" width="1" height="1"/><rect x="19" y="17" width="1" height="1"/><rect x="20" y="17" width="1" height="1"/><rect x="21" y="17" width="1" height="1"/><rect x="22" y="17" width="1" height="1"/><rect x="24" y="17" width="1" height="1"/><rect x="26" y="17" width="1" height="1"/><rect x="27" y="17" width="1" height="1"/><rect x="30" y="17" width="1" height="1"/><rect x="31" y="17" width="1" height="1"/><rect x="32" y="17" width="1" height="1"/><rect x="33" y="17" width="1" height="1"/><rect x="36" y="17" width="1" height="1"/><rect x="37" y="17" width="1" height="1"/><rect x="5" y="18" width="1" height="1"/><rect x="6" y="18" width="1" height="1"/><rect x="7" y="18" width="1" height="1"/><rect x="8" y="18" width="1" height="1"/><rect x="9" y="18" width="1" height="1"/><rect x="10" y="18" width="1" height="1"/><rect x="12" y="18" width="1" height="1"/><rect x="15" y="18" width="1" height="1"/><rect x="17" y="18" width="1" height="1"/><rect x="18" y="18" width="1" height="1"/><rect x="19" y="18" width="1" height="1"/><rect x="21" y="18" width="1" height="1"/><rect x="23" y="18" width="1" height="1"/><rect x="24" y="18" width="1" height="1"/><rect x="25" y="18" width="1" height="1"/><rect x="26" y="18" width="1" height="1"/><rect x="29" y="18" width="1" height="1"/><rect x="31" y="18" width="1" height="1"/><rect x="34" y="18" width="1" height="1"/><rect x="36" y="18" width="1" height="1"/><rect x="37" y="18" width="1" height="1"/><rect x="38" y="18" width="1" height="1"/><rect x="39" y="18" width="1" height="1"/><rect x="40" y="18" width="1" height="1"/><rect x="4" y="19" width="1" height="1"/><rect x="5" y="19" width="1" height="1"/><rect x="6" y="19" width="1" height="1"/><rect x="7" y="19" width="1" height="1"/><rect x="8" y="19" width="1" height="1"/><rect x="9" y="19" width="1" height="1"/><rect x="11" y="19" width="1" height="1"/><rect x="15" y="19" width="1" height="1"/><rect x="17" y="19" width="1" height="1"/><rect x="18" y="19" width="1" height="1"/><rect x="21" y="19" width="1" height="1"/><rect x="22" y="19" width="1" height="1"/><rect x="23" y="19" width="1" height="1"/><rect x="27" y="19" width="1" height="1"/><rect x="31" y="19" width="1" height="1"/><rect x="33" y="19" width="1" height="1"/><rect x="34" y="19" width="1" height="1"/><rect x="35" y="19" width="1" height="1"/><rect x="37" y="19" width="1" height="1"/><rect x="38" y="19" width="1" height="1"/><rect x="39" y="19" width="1" height="1"/><rect x="40" y="19" width="1" height="1"/><rect x="4" y="20" width="1" height="1"/><rect x="5" y="20" width="1" height="1"/><rect x="10" y="20" width="1" height="1"/><rect x="15" y="20" width="1" height="1"/><rect x="16" y="20" width="1" height="1"/><rect x="17" y="20" width="1" height="1"/><rect x="18" y="20" width="1" height="1"/><rect x="19" y="20" width="1" height="1"/><rect x="20" y="20" width="1" height="1"/><rect x="21" y="20" width="1" height="1"/><rect x="23" y="20" width="1" height="1"/><rect x="24" y="20" width="1" height="1"/><rect x="29" y="20" width="1" height="1"/><rect x="30" y="20" width="1" height="1"/><rect x="32" y="20" width="1" height="1"/><rect x="33" y="20" width="1" height="1"/><rect x="34" y="20" width="1" height="1"/><rect x="35" y="20" width="1" height="1"/><rect x="38" y="20" width="1" height="1"/><rect x="39" y="20" width="1" height="1"/><rect x="5" y="21" width="1" height="1"/><rect x="8" y="21" width="1" height="1"/><rect x="13" y="21" width="1" height="1"/><rect x="18" y="21" width="1" height="1"/><rect x="20" y="21" width="1" height="1"/><rect x="22" y="21" width="1" height="1"/><rect x="24" y="21" width="1" height="1"/><rect x="28" y="21" width="1" height="1"/><rect x="31" y="21" width="1" height="1"/><rect x="32" y="21" width="1" height="1"/><rect x="38" y="21" width="1" height="1"/><rect x="4" y="22" width="1" height="1"/><rect x="5" y="22" width="1" height="1"/><rect x="8" y="22" width="1" height="1"/><rect x="9" y="22" width="1" height="1"/><rect x="10" y="22" width="1" height="1"/><rect x="12" y="22" width="1" height="1"/><rect x="13" y="22" width="1" height="1"/><rect x="15" y="22" width="1" height="1"/><rect x="19" y="22" width="1" height="1"/><rect x="21" y="22" width="1" height="1"/><rect x="22" y="22" width="1" height="1"/><rect x="24" y="22" width="1" height="1"/><rect x="26" y="22" width="1" height="1"/><rect x="27" y="22" width="1" height="1"/><rect x="29" y="22" width="1" height="1"/><rect x="31" y="22" width="1" height="1"/><rect x="34" y="22" width="1" height="1"/><rect x="35" y="22" width="1" height="1"/><rect x="38" y="22" width="1" height="1"/><rect x="40" y="22" width="1" height="1"/><rect x="5" y="23" width="1" height="1"/><rect x="6" y="23" width="1" height="1"/><rect x="7" y="23" width="1" height="1"/><rect x="9" y="23" width="1" height="1"/><rect x="11" y="23" width="1" height="1"/><rect x="12" y="23" width="1" height="1"/><rect x="15" y="23" width="1" height="1"/><rect x="18" y="23" width="1" height="1"/><rect x="26" y="23" width="1" height="1"/><rect x="29" y="23" width="1" height="1"/><rect x="33" y="23" width="1" height="1"/><rect x="37" y="23" width="1" height="1"/><rect x="40" y="23" width="1" height="1"/><rect x="6" y="24" width="1" height="1"/><rect x="9" y="24" width="1" height="1"/><rect x="10" y="24" width="1" height="1"/><rect x="13" y="24" width="1" height="1"/><rect x="17" y="24" width="1" height="1"/><rect x="18" y="24" width="1" height="1"/><rect x="19" y="24" width="1" height="1"/><rect x="20" y="24" width="1" height="1"/><rect x="21" y="24" width="1" height="1"/><rect x="22" y="24" width="1" height="1"/><rect x="26" y="24" width="1" height="1"/><rect x="28" y="24" width="1" height="1"/><rect x="32" y="24" width="1" height="1"/><rect x="33" y="24" width="1" height="1"/><rect x="34" y="24" width="1" height="1"/><rect x="35" y="24" width="1" height="1"/><rect x="36" y="24" width="1" height="1"/><rect x="5" y="25" width="1" height="1"/><rect x="7" y="25" width="1" height="1"/><rect x="12" y="25" width="1" height="1"/><rect x="18" y="25" width="1" height="1"/><rect x="19" y="25" width="1" height="1"/><rect x="23" y="25" width="1" height="1"/><rect x="24" y="25" width="1" height="1"/><rect x="25" y="25" width="1" height="1"/><rect x="26" y="25" width="1" height="1"/><rect x="27" y="25" width="1" height="1"/><rect x="28" y="25" width="1" height="1"/><rect x="29" y="25" width="1" height="1"/><rect x="30" y="25" width="1" height="1"/><rect x="31" y="25" width="1" height="1"/><rect x="33" y="25" width="1" height="1"/><rect x="36" y="25" width="1" height="1"/><rect x="38" y="25" width="1" height="1"/><rect x="6" y="26" width="1" height="1"/><rect x="9" y="26" width="1" height="1"/><rect x="10" y="26" width="1" height="1"/><rect x="11" y="26" width="1" height="1"/><rect x="13" y="26" width="1" height="1"/><rect x="14" y="26" width="1" height="1"/><rect x="17" y="26" width="1" height="1"/><rect x="18" y="26" width="1" height="1"/><rect x="19" y="26" width="1" height="1"/><rect x="21" y="26" width="1" height="1"/><rect x="22" y="26" width="1" height="1"/><rect x="24" y="26" width="1" height="1"/><rect x="25" y="26" width="1" height="1"/><rect x="27" y="26" width="1" height="1"/><rect x="31" y="26" width="1" height="1"/><rect x="32" y="26" width="1" height="1"/><rect x="33" y="26" width="1" height="1"/><rect x="34" y="26" width="1" height="1"/><rect x="35" y="26" width="1" height="1"/><rect x="37" y="26" width="1" height="1"/><rect x="40" y="26" width="1" height="1"/><rect x="5" y="27" width="1" height="1"/><rect x="6" y="27" width="1" height="1"/><rect x="7" y="27" width="1" height="1"/><rect x="8" y="27" width="1" height="1"/><rect x="15" y="27" width="1" height="1"/><rect x="16" y="27" width="1" height="1"/><rect x="18" y="27" width="1" height="1"/><rect x="21" y="27" width="1" height="1"/><rect x="23" y="27" width="1" height="1"/><rect x="27" y="27" width="1" height="1"/><rect x="31" y="27" width="1" height="1"/><rect x="33" y="27" width="1" height="1"/><rect x="35" y="27" width="1" height="1"/><rect x="36" y="27" width="1" height="1"/><rect x="37" y="27" width="1" height="1"/><rect x="38" y="27" width="1" height="1"/><rect x="39" y="27" width="1" height="1"/><rect x="40" y="27" width="1" height="1"/><rect x="5" y="28" width="1" height="1"/><rect x="9" y="28" width="1" height="1"/><rect x="10" y="28" width="1" height="1"/><rect x="11" y="28" width="1" height="1"/><rect x="12" y="28" width="1" height="1"/><rect x="14" y="28" width="1" height="1"/><rect x="15" y="28" width="1" height="1"/><rect x="18" y="28" width="1" height="1"/><rect x="19" y="28" width="1" height="1"/><rect x="20" y="28" width="1" height="1"/><rect x="21" y="28" width="1" height="1"/><rect x="22" y="28" width="1" height="1"/><rect x="23" y="28" width="1" height="1"/><rect x="25" y="28" width="1" height="1"/><rect x="26" y="28" width="1" height="1"/><rect x="30" y="28" width="1" height="1"/><rect x="31" y="28" width="1" height="1"/><rect x="33" y="28" width="1" height="1"/><rect x="34" y="28" width="1" height="1"/><rect x="35" y="28" width="1" height="1"/><rect x="40" y="28" width="1" height="1"/><rect x="4" y="29" width="1" height="1"/><rect x="7" y="29" width="1" height="1"/><rect x="11" y="29" width="1" height="1"/><rect x="20" y="29" width="1" height="1"/><rect x="21" y="29" width="1" height="1"/><rect x="23" y="29" width="1" height="1"/><rect x="24" y="29" width="1" height="1"/><rect x="25" y="29" width="1" height="1"/><rect x="27" y="29" width="1" height="1"/><rect x="28" y="29" width="1" height="1"/><rect x="31" y="29" width="1" height="1"/><rect x="36" y="29" width="1" height="1"/><rect x="37" y="29" width="1" height="1"/><rect x="4" y="30" width="1" height="1"/><rect x="5" y="30" width="1" height="1"/><rect x="6" y="30" width="1" height="1"/><rect x="7" y="30" width="1" height="1"/><rect x="8" y="30" width="1" height="1"/><rect x="9" y="30" width="1" height="1"/><rect x="10" y="30" width="1" height="1"/><rect x="12" y="30" width="1" height="1"/><rect x="13" y="30" width="1" height="1"/><rect x="15" y="30" width="1" height="1"/><rect x="16" y="30" width="1" height="1"/><rect x="17" y="30" width="1" height="1"/><rect x="18" y="30" width="1" height="1"/><rect x="20" y="30" width="1" height="1"/><rect x="23" y="30" width="1" height="1"/><rect x="24" y="30" width="1" height="1"/><rect x="28" y="30" width="1" height="1"/><rect x="30" y="30" width="1" height="1"/><rect x="31" y="30" width="1" height="1"/><rect x="33" y="30" width="1" height="1"/><rect x="34" y="30" width="1" height="1"/><rect x="36" y="30" width="1" height="1"/><rect x="37" y="30" width="1" height="1"/><rect x="38" y="30" width="1" height="1"/><rect x="39" y="30" width="1" height="1"/><rect x="40" y="30" width="1" height="1"/><rect x="4" y="31" width="1" height="1"/><rect x="8" y="31" width="1" height="1"/><rect x="13" y="31" width="1" height="1"/><rect x="14" y="31" width="1" height="1"/><rect x="16" y="31" width="1" height="1"/><rect x="17" y="31" width="1" height="1"/><rect x="18" y="31" width="1" height="1"/><rect x="19" y="31" width="1" height="1"/><rect x="24" y="31" width="1" height="1"/><rect x="27" y="31" width="1" height="1"/><rect x="30" y="31" width="1" height="1"/><rect x="32" y="31" width="1" height="1"/><rect x="33" y="31" width="1" height="1"/><rect x="35" y="31" width="1" height="1"/><rect x="37" y="31" width="1" height="1"/><rect x="38" y="31" width="1" height="1"/><rect x="4" y="32" width="1" height="1"/><rect x="8" y="32" width="1" height="1"/><rect x="9" y="32" width="1" height="1"/><rect x="10" y="32" width="1" height="1"/><rect x="12" y="32" width="1" height="1"/><rect x="13" y="32" width="1" height="1"/><rect x="15" y="32" width="1" height="1"/><rect x="16" y="32" width="1" height="1"/><rect x="17" y="32" width="1" height="1"/><rect x="22" y="32" width="1" height="1"/><rect x="26" y="32" width="1" height="1"/><rect x="28" y="32" width="1" height="1"/><rect x="29" y="32" width="1" height="1"/><rect x="32" y="32" width="1" height="1"/><rect x="33" y="32" width="1" height="1"/><rect x="34" y="32" width="1" height="1"/><rect x="35" y="32" width="1" height="1"/><rect x="36" y="32" width="1" height="1"/><rect x="37" y="32" width="1" height="1"/><rect x="38" y="32" width="1" height="1"/><rect x="40" y="32" width="1" height="1"/><rect x="12" y="33" width="1" height="1"/><rect x="13" y="33" width="1" height="1"/><rect x="14" y="33" width="1" height="1"/><rect x="16" y="33" width="1" height="1"/><rect x="18" y="33" width="1" height="1"/><rect x="19" y="33" width="1" height="1"/><rect x="23" y="33" width="1" height="1"/><rect x="24" y="33" width="1" height="1"/><rect x="26" y="33" width="1" height="1"/><rect x="32" y="33" width="1" height="1"/><rect x="36" y="33" width="1" height="1"/><rect x="38" y="33" width="1" height="1"/><rect x="4" y="34" width="1" height="1"/><rect x="5" y="34" width="1" height="1"/><rect x="6" y="34" width="1" height="1"/><rect x="7" y="34" width="1" height="1"/><rect x="8" y="34" width="1" height="1"/><rect x="9" y="34" width="1" height="1"/><rect x="10" y="34" width="1" height="1"/><rect x="12" y="34" width="1" height="1"/><rect x="13" y="34" width="1" height="1"/><rect x="14" y="34" width="1" height="1"/><rect x="16" y="34" width="1" height="1"/><rect x="19" y="34" width="1" height="1"/><rect x="20" y="34" width="1" height="1"/><rect x="23" y="34" width="1" height="1"/><rect x="25" y="34" width="1" height="1"/><rect x="26" y="34" width="1" height="1"/><rect x="27" y="34" width="1" height="1"/><rect x="32" y="34" width="1" height="1"/><rect x="34" y="34" width="1" height="1"/><rect x="36" y="34" width="1" height="1"/><rect x="40" y="34" width="1" height="1"/><rect x="4" y="35" width="1" height="1"/><rect x="10" y="35" width="1" height="1"/><rect x="12" y="35" width="1" height="1"/><rect x="13" y="35" width="1" height="1"/><rect x="15" y="35" width="1" height="1"/><rect x="17" y="35" width="1" height="1"/><rect x="18" y="35" width="1" height="1"/><rect x="19" y="35" width="1" height="1"/><rect x="20" y="35" width="1" height="1"/><rect x="21" y="35" width="1" height="1"/><rect x="22" y="35" width="1" height="1"/><rect x="23" y="35" width="1" height="1"/><rect x="24" y="35" width="1" height="1"/><rect x="27" y="35" width="1" height="1"/><rect x="29" y="35" width="1" height="1"/><rect x="31" y="35" width="1" height="1"/><rect x="32" y="35" width="1" height="1"/><rect x="36" y="35" width="1" height="1"/><rect x="39" y="35" width="1" height="1"/><rect x="4" y="36" width="1" height="1"/><rect x="6" y="36" width="1" height="1"/><rect x="7" y="36" width="1" height="1"/><rect x="8" y="36" width="1" height="1"/><rect x="10" y="36" width="1" height="1"/><rect x="12" y="36" width="1" height="1"/><rect x="13" y="36" width="1" height="1"/><rect x="15" y="36" width="1" height="1"/><rect x="17" y="36" width="1" height="1"/><rect x="19" y="36" width="1" height="1"/><rect x="25" y="36" width="1" height="1"/><rect x="26" y="36" width="1" height="1"/><rect x="27" y="36" width="1" height="1"/><rect x="28" y="36" width="1" height="1"/><rect x="31" y="36" width="1" height="1"/><rect x="32" y="36" width="1" height="1"/><rect x="33" y="36" width="1" height="1"/><rect x="34" y="36" width="1" height="1"/><rect x="35" y="36" width="1" height="1"/><rect x="36" y="36" width="1" height="1"/><rect x="40" y="36" width="1" height="1"/><rect x="4" y="37" width="1" height="1"/><rect x="6" y="37" width="1" height="1"/><rect x="7" y="37" width="1" height="1"/><rect x="8" y="37" width="1" height="1"/><rect x="10" y="37" width="1" height="1"/><rect x="12" y="37" width="1" height="1"/><rect x="15" y="37" width="1" height="1"/><rect x="18" y="37" width="1" height="1"/><rect x="20" y="37" width="1" height="1"/><rect x="22" y="37" width="1" height="1"/><rect x="26" y="37" width="1" height="1"/><rect x="27" y="37" width="1" height="1"/><rect x="28" y="37" width="1" height="1"/><rect x="34" y="37" width="1" height="1"/><rect x="40" y="37" width="1" height="1"/><rect x="4" y="38" width="1" height="1"/><rect x="6" y="38" width="1" height="1"/><rect x="7" y="38" width="1" height="1"/><rect x="8" y="38" width="1" height="1"/><rect x="10" y="38" width="1" height="1"/><rect x="13" y="38" width="1" height="1"/><rect x="15" y="38" width="1" height="1"/><rect x="16" y="38" width="1" height="1"/><rect x="17" y="38" width="1" height="1"/><rect x="19" y="38" width="1" height="1"/><rect x="20" y="38" width="1" height="1"/><rect x="21" y="38" width="1" height="1"/><rect x="22" y="38" width="1" height="1"/><rect x="23" y="38" width="1" height="1"/><rect x="24" y="38" width="1" height="1"/><rect x="25" y="38" width="1" height="1"/><rect x="26" y="38" width="1" height="1"/><rect x="27" y="38" width="1" height="1"/><rect x="29" y="38" width="1" height="1"/><rect x="30" y="38" width="1" height="1"/><rect x="32" y="38" width="1" height="1"/><rect x="33" y="38" width="1" height="1"/><rect x="36" y="38" width="1" height="1"/><rect x="40" y="38" width="1" height="1"/><rect x="4" y="39" width="1" height="1"/><rect x="10" y="39" width="1" height="1"/><rect x="13" y="39" width="1" height="1"/><rect x="14" y="39" width="1" height="1"/><rect x="17" y="39" width="1" height="1"/><rect x="20" y="39" width="1" height="1"/><rect x="21" y="39" width="1" height="1"/><rect x="23" y="39" width="1" height="1"/><rect x="24" y="39" width="1" height="1"/><rect x="26" y="39" width="1" height="1"/><rect x="30" y="39" width="1" height="1"/><rect x="31" y="39" width="1" height="1"/><rect x="36" y="39" width="1" height="1"/><rect x="37" y="39" width="1" height="1"/><rect x="38" y="39" width="1" height="1"/><rect x="39" y="39" width="1" height="1"/><rect x="40" y="39" width="1" height="1"/><rect x="4" y="40" width="1" height="1"/><rect x="5" y="40" width="1" height="1"/><rect x="6" y="40" width="1" height="1"/><rect x="7" y="40" width="1" height="1"/><rect x="8" y="40" width="1" height="1"/><rect x="9" y="40" width="1" height="1"/><rect x="10" y="40" width="1" height="1"/><rect x="12" y="40" width="1" height="1"/><rect x="13" y="40" width="1" height="1"/><rect x="15" y="40" width="1" height="1"/><rect x="18" y="40" width="1" height="1"/><rect x="19" y="40" width="1" height="1"/><rect x="20" y="40" width="1" height="1"/><rect x="22" y="40" width="1" height="1"/><rect x="24" y="40" width="1" height="1"/><rect x="27" y="40" width="1" height="1"/><rect x="28" y="40" width="1" height="1"/><rect x="31" y="40" width="1" height="1"/><rect x="32" y="40" width="1" height="1"/><rect x="33" y="40" width="1" height="1"/><rect x="35" y="40" width="1" height="1"/><rect x="37" y="40" width="1" height="1"/><rect x="40" y="40" width="1" height="1"/></g></svg>
  <text x="898" y="2108" text-anchor="middle" font-size="24" fill="#ffcf6b" font-family="Arial,sans-serif">Scan for live directions</text>

  <!-- Reassurance -->
  <text x="600" y="2188" text-anchor="middle" font-size="38" fill="#ffffff" font-family="Arial,sans-serif">Same taste • Same team • More space to sit!</text>
  <text x="600" y="2244" text-anchor="middle" font-size="30" fill="#ffcf6b" font-family="'Noto Sans Kannada','Kannada Sangam MN',sans-serif">ಅದೇ ರುಚಿ • ಅದೇ ತಂಡ • ಹೆಚ್ಚು ಜಾಗ</text>
  <text x="600" y="2300" text-anchor="middle" font-size="26" fill="#fff6e6" font-family="Arial,sans-serif" opacity="0.85">Thank you for your love, all these years 🙏</text>

  <!-- bottom dots -->
  <g fill="url(#gold2)"><circle cx="200" cy="2346" r="11"/><circle cx="320" cy="2346" r="11"/><circle cx="440" cy="2346" r="11"/><circle cx="560" cy="2346" r="11"/><circle cx="640" cy="2346" r="11"/><circle cx="760" cy="2346" r="11"/><circle cx="880" cy="2346" r="11"/><circle cx="1000" cy="2346" r="11"/></g>
</svg>
