<svg xmlns="http://www.w3.org/2000/svg" viewBox="0 0 1200 2400" width="1200" height="2400" font-family="'Arial Black','Helvetica Neue',Arial,sans-serif">
  <!-- ====== "WE'VE MOVED" REDIRECT PIECE — place at OLD spot (Gayathri Devi Park). Print on weatherproof FLEX. ====== -->
  <defs>
    <linearGradient id="bg2" x1="0" y1="0" x2="0" y2="1">
      <stop offset="0" stop-color="#123a1a"/>
      <stop offset="0.55" stop-color="#0e2f16"/>
      <stop offset="1" stop-color="#0a2410"/>
    </linearGradient>
    <linearGradient id="gold2" x1="0" y1="0" x2="0" y2="1">
      <stop offset="0" stop-color="#ffd447"/><stop offset="1" stop-color="#f6941d"/>
    </linearGradient>
    <linearGradient id="arrow" x1="0" y1="0" x2="1" y2="0">
      <stop offset="0" stop-color="#ffd447"/><stop offset="1" stop-color="#f6941d"/>
    </linearGradient>
    <filter id="soft2" x="-20%" y="-20%" width="140%" height="140%">
      <feDropShadow dx="0" dy="6" stdDeviation="10" flood-color="#000000" flood-opacity="0.4"/>
    </filter>
  </defs>

  <rect width="1200" height="2400" fill="url(#bg2)"/>
  <rect x="34" y="34" width="1132" height="2332" fill="none" stroke="url(#gold2)" stroke-width="6" rx="26"/>

  <!-- Brand strip -->
  <text x="600" y="150" text-anchor="middle" font-size="62" fill="#fff6e6" letter-spacing="1">SRI LAKSHMI VENKATESHWARA</text>
  <rect x="350" y="178" width="500" height="66" rx="33" fill="url(#gold2)"/>
  <text x="600" y="225" text-anchor="middle" font-size="38" fill="#123a1a" letter-spacing="4">CHATS CENTRE</text>
  <text x="600" y="292" text-anchor="middle" font-size="34" fill="#ffcf6b" font-family="'Noto Sans Kannada','Kannada Sangam MN',sans-serif">ಶ್ರೀ ಲಕ್ಷ್ಮೀ ವೆಂಕಟೇಶ್ವರ ಚಾಟ್ಸ್ ಸೆಂಟರ್</text>

  <line x1="140" y1="340" x2="1060" y2="340" stroke="#ffb627" stroke-width="3" stroke-opacity="0.5"/>

  <!-- HEADLINE -->
  <text x="600" y="500" text-anchor="middle" font-size="150" fill="#ffd447">WE'VE</text>
  <text x="600" y="650" text-anchor="middle" font-size="150" fill="#ffd447">MOVED!</text>
  <text x="600" y="740" text-anchor="middle" font-size="60" fill="#fff6e6" font-family="'Noto Sans Kannada','Kannada Sangam MN',sans-serif">ನಾವು ಸ್ಥಳಾಂತರಗೊಂಡಿದ್ದೇವೆ!</text>

  <!-- BIG ARROW -->
  <g transform="translate(600 970)" filter="url(#soft2)">
    <path d="M-360 -60 H150 V-150 L360 0 L150 150 V60 H-360 Z" fill="url(#arrow)"/>
  </g>

  <!-- New location -->
  <text x="600" y="1200" text-anchor="middle" font-size="44" fill="#ffffff" font-family="Arial,sans-serif">We are now just a short walk away, at</text>
  <text x="600" y="1272" text-anchor="middle" font-size="52" fill="#ffd447">Opposite Atal Bihari Vajpayee</text>
  <text x="600" y="1336" text-anchor="middle" font-size="52" fill="#ffd447">Badminton Centre</text>
  <text x="600" y="1398" text-anchor="middle" font-size="34" fill="#ffcf6b" font-family="'Noto Sans Kannada','Kannada Sangam MN',sans-serif">ಅಟಲ್ ಬಿಹಾರಿ ವಾಜಪೇಯಿ ಬ್ಯಾಡ್ಮಿಂಟನ್ ಸೆಂಟರ್ ಎದುರುಗಡೆ</text>

  <!-- MINI MAP -->
  <g transform="translate(0 1460)">
    <rect x="120" y="0" width="960" height="300" rx="24" fill="#ffffff" opacity="0.06"/>
    <!-- road -->
    <path d="M200 150 H1000" stroke="#ffb627" stroke-width="14" stroke-dasharray="4 0" opacity="0.7"/>
    <path d="M200 150 H1000" stroke="#0e2f16" stroke-width="4" stroke-dasharray="20 22"/>
    <!-- from: park -->
    <g transform="translate(280 150)">
      <circle r="34" fill="#2f9e44"/><text x="0" y="12" text-anchor="middle" font-size="34">🌳</text>
      <text x="0" y="80" text-anchor="middle" font-size="26" fill="#fff6e6" font-family="Arial,sans-serif">Gayathri Devi Park</text>
      <text x="0" y="-52" text-anchor="middle" font-size="24" fill="#ffcf6b" font-family="Arial,sans-serif">YOU ARE HERE</text>
    </g>
    <!-- arrow along road -->
    <path d="M560 150 l60 -22 v14 h120 v16 h-120 v14 z" fill="#ffd447"/>
    <path d="M760 150 l60 -22 v14 h60 v16 h-60 v14 z" fill="#ffd447"/>
    <!-- to: badminton -->
    <g transform="translate(940 150)">
      <circle r="40" fill="#f6941d"/><text x="0" y="12" text-anchor="middle" font-size="34">🏸</text>
      <text x="0" y="86" text-anchor="middle" font-size="26" fill="#fff6e6" font-family="Arial,sans-serif">Badminton Centre</text>
      <text x="0" y="-56" text-anchor="middle" font-size="26" fill="#ffd447" font-family="'Arial Black',Arial,sans-serif">WE ARE HERE ★</text>
    </g>
  </g>

  <!-- Reassurance -->
  <text x="600" y="1870" text-anchor="middle" font-size="46" fill="#ffffff" font-family="Arial,sans-serif">Same taste • Same team • More space to sit!</text>
  <text x="600" y="1928" text-anchor="middle" font-size="34" fill="#ffcf6b" font-family="'Noto Sans Kannada','Kannada Sangam MN',sans-serif">ಅದೇ ರುಚಿ • ಅದೇ ತಂಡ • ಕುಳಿತು ಆನಂದಿಸಲು ವಿಶಾಲ ಸ್ಥಳ</text>

  <!-- Contact + QR -->
  <g transform="translate(150 1990)">
    <rect x="0" y="0" width="600" height="150" rx="20" fill="#ffffff" opacity="0.07"/>
    <text x="40" y="62" font-size="32" fill="#ffd447" font-family="Arial,sans-serif">📞 Call / WhatsApp</text>
    <text x="40" y="124" font-size="62" fill="#ffffff" font-family="'Arial Black',Arial,sans-serif">90363 79288</text>
    <g transform="translate(714 -6)">
      <rect x="0" y="0" width="162" height="162" rx="14" fill="#fff6e6"/>
      <svg x="7" y="7" width="148" height="148" viewBox="0 0 45 45"><rect width="45" height="45" fill="#ffffff"/><g fill="#1a0606" shape-rendering="crispEdges"><rect x="4" y="4" width="1" height="1"/><rect x="5" y="4" width="1" height="1"/><rect x="6" y="4" width="1" height="1"/><rect x="7" y="4" width="1" height="1"/><rect x="8" y="4" width="1" height="1"/><rect x="9" y="4" width="1" height="1"/><rect x="10" y="4" width="1" height="1"/><rect x="12" y="4" width="1" height="1"/><rect x="13" y="4" width="1" height="1"/><rect x="16" y="4" width="1" height="1"/><rect x="18" y="4" width="1" height="1"/><rect x="21" y="4" width="1" height="1"/><rect x="22" y="4" width="1" height="1"/><rect x="23" y="4" width="1" height="1"/><rect x="25" y="4" width="1" height="1"/><rect x="28" y="4" width="1" height="1"/><rect x="29" y="4" width="1" height="1"/><rect x="32" y="4" width="1" height="1"/><rect x="34" y="4" width="1" height="1"/><rect x="35" y="4" width="1" height="1"/><rect x="36" y="4" width="1" height="1"/><rect x="37" y="4" width="1" height="1"/><rect x="38" y="4" width="1" height="1"/><rect x="39" y="4" width="1" height="1"/><rect x="40" y="4" width="1" height="1"/><rect x="4" y="5" width="1" height="1"/><rect x="10" y="5" width="1" height="1"/><rect x="12" y="5" width="1" height="1"/><rect x="14" y="5" width="1" height="1"/><rect x="17" y="5" width="1" height="1"/><rect x="22" y="5" width="1" height="1"/><rect x="24" y="5" width="1" height="1"/><rect x="28" y="5" width="1" height="1"/><rect x="32" y="5" width="1" height="1"/><rect x="34" y="5" width="1" height="1"/><rect x="40" y="5" width="1" height="1"/><rect x="4" y="6" width="1" height="1"/><rect x="6" y="6" width="1" height="1"/><rect x="7" y="6" width="1" height="1"/><rect x="8" y="6" width="1" height="1"/><rect x="10" y="6" width="1" height="1"/><rect x="12" y="6" width="1" height="1"/><rect x="13" y="6" width="1" height="1"/><rect x="17" y="6" width="1" height="1"/><rect x="20" y="6" width="1" height="1"/><rect x="24" y="6" width="1" height="1"/><rect x="25" y="6" width="1" height="1"/><rect x="29" y="6" width="1" height="1"/><rect x="30" y="6" width="1" height="1"/><rect x="31" y="6" width="1" height="1"/><rect x="32" y="6" width="1" height="1"/><rect x="34" y="6" width="1" height="1"/><rect x="36" y="6" width="1" height="1"/><rect x="37" y="6" width="1" height="1"/><rect x="38" y="6" width="1" height="1"/><rect x="40" y="6" width="1" height="1"/><rect x="4" y="7" width="1" height="1"/><rect x="6" y="7" width="1" height="1"/><rect x="7" y="7" width="1" height="1"/><rect x="8" y="7" width="1" height="1"/><rect x="10" y="7" width="1" height="1"/><rect x="19" y="7" width="1" height="1"/><rect x="21" y="7" width="1" height="1"/><rect x="23" y="7" width="1" height="1"/><rect x="24" y="7" width="1" height="1"/><rect x="25" y="7" width="1" height="1"/><rect x="28" y="7" width="1" height="1"/><rect x="29" y="7" width="1" height="1"/><rect x="31" y="7" width="1" height="1"/><rect x="32" y="7" width="1" height="1"/><rect x="34" y="7" width="1" height="1"/><rect x="36" y="7" width="1" height="1"/><rect x="37" y="7" width="1" height="1"/><rect x="38" y="7" width="1" height="1"/><rect x="40" y="7" width="1" height="1"/><rect x="4" y="8" width="1" height="1"/><rect x="6" y="8" width="1" height="1"/><rect x="7" y="8" width="1" height="1"/><rect x="8" y="8" width="1" height="1"/><rect x="10" y="8" width="1" height="1"/><rect x="12" y="8" width="1" height="1"/><rect x="13" y="8" width="1" height="1"/><rect x="15" y="8" width="1" height="1"/><rect x="18" y="8" width="1" height="1"/><rect x="21" y="8" width="1" height="1"/><rect x="23" y="8" width="1" height="1"/><rect x="26" y="8" width="1" height="1"/><rect x="30" y="8" width="1" height="1"/><rect x="32" y="8" width="1" height="1"/><rect x="34" y="8" width="1" height="1"/><rect x="36" y="8" width="1" height="1"/><rect x="37" y="8" width="1" height="1"/><rect x="38" y="8" width="1" height="1"/><rect x="40" y="8" width="1" height="1"/><rect x="4" y="9" width="1" height="1"/><rect x="10" y="9" width="1" height="1"/><rect x="18" y="9" width="1" height="1"/><rect x="19" y="9" width="1" height="1"/><rect x="20" y="9" width="1" height="1"/><rect x="21" y="9" width="1" height="1"/><rect x="22" y="9" width="1" height="1"/><rect x="24" y="9" width="1" height="1"/><rect x="26" y="9" width="1" height="1"/><rect x="27" y="9" width="1" height="1"/><rect x="29" y="9" width="1" height="1"/><rect x="30" y="9" width="1" height="1"/><rect x="34" y="9" width="1" height="1"/><rect x="40" y="9" width="1" height="1"/><rect x="4" y="10" width="1" height="1"/><rect x="5" y="10" width="1" height="1"/><rect x="6" y="10" width="1" height="1"/><rect x="7" y="10" width="1" height="1"/><rect x="8" y="10" width="1" height="1"/><rect x="9" y="10" width="1" height="1"/><rect x="10" y="10" width="1" height="1"/><rect x="12" y="10" width="1" height="1"/><rect x="14" y="10" width="1" height="1"/><rect x="16" y="10" width="1" height="1"/><rect x="18" y="10" width="1" height="1"/><rect x="20" y="10" width="1" height="1"/><rect x="22" y="10" width="1" height="1"/><rect x="24" y="10" width="1" height="1"/><rect x="26" y="10" width="1" height="1"/><rect x="28" y="10" width="1" height="1"/><rect x="30" y="10" width="1" height="1"/><rect x="32" y="10" width="1" height="1"/><rect x="34" y="10" width="1" height="1"/><rect x="35" y="10" width="1" height="1"/><rect x="36" y="10" width="1" height="1"/><rect x="37" y="10" width="1" height="1"/><rect x="38" y="10" width="1" height="1"/><rect x="39" y="10" width="1" height="1"/><rect x="40" y="10" width="1" height="1"/><rect x="13" y="11" width="1" height="1"/><rect x="14" y="11" width="1" height="1"/><rect x="16" y="11" width="1" height="1"/><rect x="18" y="11" width="1" height="1"/><rect x="20" y="11" width="1" height="1"/><rect x="26" y="11" width="1" height="1"/><rect x="29" y="11" width="1" height="1"/><rect x="31" y="11" width="1" height="1"/><rect x="32" y="11" width="1" height="1"/><rect x="4" y="12" width="1" height="1"/><rect x="7" y="12" width="1" height="1"/><rect x="8" y="12" width="1" height="1"/><rect x="9" y="12" width="1" height="1"/><rect x="10" y="12" width="1" height="1"/><rect x="11" y="12" width="1" height="1"/><rect x="12" y="12" width="1" height="1"/><rect x="14" y="12" width="1" height="1"/><rect x="16" y="12" width="1" height="1"/><rect x="19" y="12" width="1" height="1"/><rect x="20" y="12" width="1" height="1"/><rect x="22" y="12" width="1" height="1"/><rect x="24" y="12" width="1" height="1"/><rect x="26" y="12" width="1" height="1"/><rect x="27" y="12" width="1" height="1"/><rect x="33" y="12" width="1" height="1"/><rect x="36" y="12" width="1" height="1"/><rect x="38" y="12" width="1" height="1"/><rect x="39" y="12" width="1" height="1"/><rect x="40" y="12" width="1" height="1"/><rect x="4" y="13" width="1" height="1"/><rect x="5" y="13" width="1" height="1"/><rect x="7" y="13" width="1" height="1"/><rect x="8" y="13" width="1" height="1"/><rect x="9" y="13" width="1" height="1"/><rect x="12" y="13" width="1" height="1"/><rect x="13" y="13" width="1" height="1"/><rect x="14" y="13" width="1" height="1"/><rect x="17" y="13" width="1" height="1"/><rect x="18" y="13" width="1" height="1"/><rect x="24" y="13" width="1" height="1"/><rect x="27" y="13" width="1" height="1"/><rect x="28" y="13" width="1" height="1"/><rect x="29" y="13" width="1" height="1"/><rect x="31" y="13" width="1" height="1"/><rect x="32" y="13" width="1" height="1"/><rect x="33" y="13" width="1" height="1"/><rect x="36" y="13" width="1" height="1"/><rect x="37" y="13" width="1" height="1"/><rect x="39" y="13" width="1" height="1"/><rect x="5" y="14" width="1" height="1"/><rect x="10" y="14" width="1" height="1"/><rect x="15" y="14" width="1" height="1"/><rect x="16" y="14" width="1" height="1"/><rect x="17" y="14" width="1" height="1"/><rect x="21" y="14" width="1" height="1"/><rect x="22" y="14" width="1" height="1"/><rect x="25" y="14" width="1" height="1"/><rect x="27" y="14" width="1" height="1"/><rect x="31" y="14" width="1" height="1"/><rect x="32" y="14" width="1" height="1"/><rect x="34" y="14" width="1" height="1"/><rect x="35" y="14" width="1" height="1"/><rect x="36" y="14" width="1" height="1"/><rect x="37" y="14" width="1" height="1"/><rect x="38" y="14" width="1" height="1"/><rect x="40" y="14" width="1" height="1"/><rect x="6" y="15" width="1" height="1"/><rect x="8" y="15" width="1" height="1"/><rect x="9" y="15" width="1" height="1"/><rect x="11" y="15" width="1" height="1"/><rect x="14" y="15" width="1" height="1"/><rect x="17" y="15" width="1" height="1"/><rect x="18" y="15" width="1" height="1"/><rect x="19" y="15" width="1" height="1"/><rect x="21" y="15" width="1" height="1"/><rect x="22" y="15" width="1" height="1"/><rect x="26" y="15" width="1" height="1"/><rect x="27" y="15" width="1" height="1"/><rect x="31" y="15" width="1" height="1"/><rect x="35" y="15" width="1" height="1"/><rect x="36" y="15" width="1" height="1"/><rect x="37" y="15" width="1" height="1"/><rect x="38" y="15" width="1" height="1"/><rect x="39" y="15" width="1" height="1"/><rect x="40" y="15" width="1" height="1"/><rect x="4" y="16" width="1" height="1"/><rect x="7" y="16" width="1" height="1"/><rect x="8" y="16" width="1" height="1"/><rect x="10" y="16" width="1" height="1"/><rect x="11" y="16" width="1" height="1"/><rect x="12" y="16" width="1" height="1"/><rect x="14" y="16" width="1" height="1"/><rect x="18" y="16" width="1" height="1"/><rect x="23" y="16" width="1" height="1"/><rect x="27" y="16" width="1" height="1"/><rect x="28" y="16" width="1" height="1"/><rect x="31" y="16" width="1" height="1"/><rect x="32" y="16" width="1" height="1"/><rect x="34" y="16" width="1" height="1"/><rect x="37" y="16" width="1" height="1"/><rect x="40" y="16" width="1" height="1"/><rect x="5" y="17" width="1" height="1"/><rect x="7" y="17" width="1" height="1"/><rect x="9" y="17" width="1" height="1"/><rect x="12" y="17" width="1" height="1"/><rect x="17" y="17" width="1" height="1"/><rect x="19" y="17" width="1" height="1"/><rect x="20" y="17" width="1" height="1"/><rect x="21" y="17" width="1" height="1"/><rect x="22" y="17" width="1" height="1"/><rect x="24" y="17" width="1" height="1"/><rect x="26" y="17" width="1" height="1"/><rect x="27" y="17" width="1" height="1"/><rect x="30" y="17" width="1" height="1"/><rect x="31" y="17" width="1" height="1"/><rect x="32" y="17" width="1" height="1"/><rect x="33" y="17" width="1" height="1"/><rect x="36" y="17" width="1" height="1"/><rect x="37" y="17" width="1" height="1"/><rect x="5" y="18" width="1" height="1"/><rect x="6" y="18" width="1" height="1"/><rect x="7" y="18" width="1" height="1"/><rect x="8" y="18" width="1" height="1"/><rect x="9" y="18" width="1" height="1"/><rect x="10" y="18" width="1" height="1"/><rect x="12" y="18" width="1" height="1"/><rect x="15" y="18" width="1" height="1"/><rect x="17" y="18" width="1" height="1"/><rect x="18" y="18" width="1" height="1"/><rect x="19" y="18" width="1" height="1"/><rect x="21" y="18" width="1" height="1"/><rect x="23" y="18" width="1" height="1"/><rect x="24" y="18" width="1" height="1"/><rect x="25" y="18" width="1" height="1"/><rect x="26" y="18" width="1" height="1"/><rect x="29" y="18" width="1" height="1"/><rect x="31" y="18" width="1" height="1"/><rect x="34" y="18" width="1" height="1"/><rect x="36" y="18" width="1" height="1"/><rect x="37" y="18" width="1" height="1"/><rect x="38" y="18" width="1" height="1"/><rect x="39" y="18" width="1" height="1"/><rect x="40" y="18" width="1" height="1"/><rect x="4" y="19" width="1" height="1"/><rect x="5" y="19" width="1" height="1"/><rect x="6" y="19" width="1" height="1"/><rect x="7" y="19" width="1" height="1"/><rect x="8" y="19" width="1" height="1"/><rect x="9" y="19" width="1" height="1"/><rect x="11" y="19" width="1" height="1"/><rect x="15" y="19" width="1" height="1"/><rect x="17" y="19" width="1" height="1"/><rect x="18" y="19" width="1" height="1"/><rect x="21" y="19" width="1" height="1"/><rect x="22" y="19" width="1" height="1"/><rect x="23" y="19" width="1" height="1"/><rect x="27" y="19" width="1" height="1"/><rect x="31" y="19" width="1" height="1"/><rect x="33" y="19" width="1" height="1"/><rect x="34" y="19" width="1" height="1"/><rect x="35" y="19" width="1" height="1"/><rect x="37" y="19" width="1" height="1"/><rect x="38" y="19" width="1" height="1"/><rect x="39" y="19" width="1" height="1"/><rect x="40" y="19" width="1" height="1"/><rect x="4" y="20" width="1" height="1"/><rect x="5" y="20" width="1" height="1"/><rect x="10" y="20" width="1" height="1"/><rect x="15" y="20" width="1" height="1"/><rect x="16" y="20" width="1" height="1"/><rect x="17" y="20" width="1" height="1"/><rect x="18" y="20" width="1" height="1"/><rect x="19" y="20" width="1" height="1"/><rect x="20" y="20" width="1" height="1"/><rect x="21" y="20" width="1" height="1"/><rect x="23" y="20" width="1" height="1"/><rect x="24" y="20" width="1" height="1"/><rect x="29" y="20" width="1" height="1"/><rect x="30" y="20" width="1" height="1"/><rect x="32" y="20" width="1" height="1"/><rect x="33" y="20" width="1" height="1"/><rect x="34" y="20" width="1" height="1"/><rect x="35" y="20" width="1" height="1"/><rect x="38" y="20" width="1" height="1"/><rect x="39" y="20" width="1" height="1"/><rect x="5" y="21" width="1" height="1"/><rect x="8" y="21" width="1" height="1"/><rect x="13" y="21" width="1" height="1"/><rect x="18" y="21" width="1" height="1"/><rect x="20" y="21" width="1" height="1"/><rect x="22" y="21" width="1" height="1"/><rect x="24" y="21" width="1" height="1"/><rect x="28" y="21" width="1" height="1"/><rect x="31" y="21" width="1" height="1"/><rect x="32" y="21" width="1" height="1"/><rect x="38" y="21" width="1" height="1"/><rect x="4" y="22" width="1" height="1"/><rect x="5" y="22" width="1" height="1"/><rect x="8" y="22" width="1" height="1"/><rect x="9" y="22" width="1" height="1"/><rect x="10" y="22" width="1" height="1"/><rect x="12" y="22" width="1" height="1"/><rect x="13" y="22" width="1" height="1"/><rect x="15" y="22" width="1" height="1"/><rect x="19" y="22" width="1" height="1"/><rect x="21" y="22" width="1" height="1"/><rect x="22" y="22" width="1" height="1"/><rect x="24" y="22" width="1" height="1"/><rect x="26" y="22" width="1" height="1"/><rect x="27" y="22" width="1" height="1"/><rect x="29" y="22" width="1" height="1"/><rect x="31" y="22" width="1" height="1"/><rect x="34" y="22" width="1" height="1"/><rect x="35" y="22" width="1" height="1"/><rect x="38" y="22" width="1" height="1"/><rect x="40" y="22" width="1" height="1"/><rect x="5" y="23" width="1" height="1"/><rect x="6" y="23" width="1" height="1"/><rect x="7" y="23" width="1" height="1"/><rect x="9" y="23" width="1" height="1"/><rect x="11" y="23" width="1" height="1"/><rect x="12" y="23" width="1" height="1"/><rect x="15" y="23" width="1" height="1"/><rect x="18" y="23" width="1" height="1"/><rect x="26" y="23" width="1" height="1"/><rect x="29" y="23" width="1" height="1"/><rect x="33" y="23" width="1" height="1"/><rect x="37" y="23" width="1" height="1"/><rect x="40" y="23" width="1" height="1"/><rect x="6" y="24" width="1" height="1"/><rect x="9" y="24" width="1" height="1"/><rect x="10" y="24" width="1" height="1"/><rect x="13" y="24" width="1" height="1"/><rect x="17" y="24" width="1" height="1"/><rect x="18" y="24" width="1" height="1"/><rect x="19" y="24" width="1" height="1"/><rect x="20" y="24" width="1" height="1"/><rect x="21" y="24" width="1" height="1"/><rect x="22" y="24" width="1" height="1"/><rect x="26" y="24" width="1" height="1"/><rect x="28" y="24" width="1" height="1"/><rect x="32" y="24" width="1" height="1"/><rect x="33" y="24" width="1" height="1"/><rect x="34" y="24" width="1" height="1"/><rect x="35" y="24" width="1" height="1"/><rect x="36" y="24" width="1" height="1"/><rect x="5" y="25" width="1" height="1"/><rect x="7" y="25" width="1" height="1"/><rect x="12" y="25" width="1" height="1"/><rect x="18" y="25" width="1" height="1"/><rect x="19" y="25" width="1" height="1"/><rect x="23" y="25" width="1" height="1"/><rect x="24" y="25" width="1" height="1"/><rect x="25" y="25" width="1" height="1"/><rect x="26" y="25" width="1" height="1"/><rect x="27" y="25" width="1" height="1"/><rect x="28" y="25" width="1" height="1"/><rect x="29" y="25" width="1" height="1"/><rect x="30" y="25" width="1" height="1"/><rect x="31" y="25" width="1" height="1"/><rect x="33" y="25" width="1" height="1"/><rect x="36" y="25" width="1" height="1"/><rect x="38" y="25" width="1" height="1"/><rect x="6" y="26" width="1" height="1"/><rect x="9" y="26" width="1" height="1"/><rect x="10" y="26" width="1" height="1"/><rect x="11" y="26" width="1" height="1"/><rect x="13" y="26" width="1" height="1"/><rect x="14" y="26" width="1" height="1"/><rect x="17" y="26" width="1" height="1"/><rect x="18" y="26" width="1" height="1"/><rect x="19" y="26" width="1" height="1"/><rect x="21" y="26" width="1" height="1"/><rect x="22" y="26" width="1" height="1"/><rect x="24" y="26" width="1" height="1"/><rect x="25" y="26" width="1" height="1"/><rect x="27" y="26" width="1" height="1"/><rect x="31" y="26" width="1" height="1"/><rect x="32" y="26" width="1" height="1"/><rect x="33" y="26" width="1" height="1"/><rect x="34" y="26" width="1" height="1"/><rect x="35" y="26" width="1" height="1"/><rect x="37" y="26" width="1" height="1"/><rect x="40" y="26" width="1" height="1"/><rect x="5" y="27" width="1" height="1"/><rect x="6" y="27" width="1" height="1"/><rect x="7" y="27" width="1" height="1"/><rect x="8" y="27" width="1" height="1"/><rect x="15" y="27" width="1" height="1"/><rect x="16" y="27" width="1" height="1"/><rect x="18" y="27" width="1" height="1"/><rect x="21" y="27" width="1" height="1"/><rect x="23" y="27" width="1" height="1"/><rect x="27" y="27" width="1" height="1"/><rect x="31" y="27" width="1" height="1"/><rect x="33" y="27" width="1" height="1"/><rect x="35" y="27" width="1" height="1"/><rect x="36" y="27" width="1" height="1"/><rect x="37" y="27" width="1" height="1"/><rect x="38" y="27" width="1" height="1"/><rect x="39" y="27" width="1" height="1"/><rect x="40" y="27" width="1" height="1"/><rect x="5" y="28" width="1" height="1"/><rect x="9" y="28" width="1" height="1"/><rect x="10" y="28" width="1" height="1"/><rect x="11" y="28" width="1" height="1"/><rect x="12" y="28" width="1" height="1"/><rect x="14" y="28" width="1" height="1"/><rect x="15" y="28" width="1" height="1"/><rect x="18" y="28" width="1" height="1"/><rect x="19" y="28" width="1" height="1"/><rect x="20" y="28" width="1" height="1"/><rect x="21" y="28" width="1" height="1"/><rect x="22" y="28" width="1" height="1"/><rect x="23" y="28" width="1" height="1"/><rect x="25" y="28" width="1" height="1"/><rect x="26" y="28" width="1" height="1"/><rect x="30" y="28" width="1" height="1"/><rect x="31" y="28" width="1" height="1"/><rect x="33" y="28" width="1" height="1"/><rect x="34" y="28" width="1" height="1"/><rect x="35" y="28" width="1" height="1"/><rect x="40" y="28" width="1" height="1"/><rect x="4" y="29" width="1" height="1"/><rect x="7" y="29" width="1" height="1"/><rect x="11" y="29" width="1" height="1"/><rect x="20" y="29" width="1" height="1"/><rect x="21" y="29" width="1" height="1"/><rect x="23" y="29" width="1" height="1"/><rect x="24" y="29" width="1" height="1"/><rect x="25" y="29" width="1" height="1"/><rect x="27" y="29" width="1" height="1"/><rect x="28" y="29" width="1" height="1"/><rect x="31" y="29" width="1" height="1"/><rect x="36" y="29" width="1" height="1"/><rect x="37" y="29" width="1" height="1"/><rect x="4" y="30" width="1" height="1"/><rect x="5" y="30" width="1" height="1"/><rect x="6" y="30" width="1" height="1"/><rect x="7" y="30" width="1" height="1"/><rect x="8" y="30" width="1" height="1"/><rect x="9" y="30" width="1" height="1"/><rect x="10" y="30" width="1" height="1"/><rect x="12" y="30" width="1" height="1"/><rect x="13" y="30" width="1" height="1"/><rect x="15" y="30" width="1" height="1"/><rect x="16" y="30" width="1" height="1"/><rect x="17" y="30" width="1" height="1"/><rect x="18" y="30" width="1" height="1"/><rect x="20" y="30" width="1" height="1"/><rect x="23" y="30" width="1" height="1"/><rect x="24" y="30" width="1" height="1"/><rect x="28" y="30" width="1" height="1"/><rect x="30" y="30" width="1" height="1"/><rect x="31" y="30" width="1" height="1"/><rect x="33" y="30" width="1" height="1"/><rect x="34" y="30" width="1" height="1"/><rect x="36" y="30" width="1" height="1"/><rect x="37" y="30" width="1" height="1"/><rect x="38" y="30" width="1" height="1"/><rect x="39" y="30" width="1" height="1"/><rect x="40" y="30" width="1" height="1"/><rect x="4" y="31" width="1" height="1"/><rect x="8" y="31" width="1" height="1"/><rect x="13" y="31" width="1" height="1"/><rect x="14" y="31" width="1" height="1"/><rect x="16" y="31" width="1" height="1"/><rect x="17" y="31" width="1" height="1"/><rect x="18" y="31" width="1" height="1"/><rect x="19" y="31" width="1" height="1"/><rect x="24" y="31" width="1" height="1"/><rect x="27" y="31" width="1" height="1"/><rect x="30" y="31" width="1" height="1"/><rect x="32" y="31" width="1" height="1"/><rect x="33" y="31" width="1" height="1"/><rect x="35" y="31" width="1" height="1"/><rect x="37" y="31" width="1" height="1"/><rect x="38" y="31" width="1" height="1"/><rect x="4" y="32" width="1" height="1"/><rect x="8" y="32" width="1" height="1"/><rect x="9" y="32" width="1" height="1"/><rect x="10" y="32" width="1" height="1"/><rect x="12" y="32" width="1" height="1"/><rect x="13" y="32" width="1" height="1"/><rect x="15" y="32" width="1" height="1"/><rect x="16" y="32" width="1" height="1"/><rect x="17" y="32" width="1" height="1"/><rect x="22" y="32" width="1" height="1"/><rect x="26" y="32" width="1" height="1"/><rect x="28" y="32" width="1" height="1"/><rect x="29" y="32" width="1" height="1"/><rect x="32" y="32" width="1" height="1"/><rect x="33" y="32" width="1" height="1"/><rect x="34" y="32" width="1" height="1"/><rect x="35" y="32" width="1" height="1"/><rect x="36" y="32" width="1" height="1"/><rect x="37" y="32" width="1" height="1"/><rect x="38" y="32" width="1" height="1"/><rect x="40" y="32" width="1" height="1"/><rect x="12" y="33" width="1" height="1"/><rect x="13" y="33" width="1" height="1"/><rect x="14" y="33" width="1" height="1"/><rect x="16" y="33" width="1" height="1"/><rect x="18" y="33" width="1" height="1"/><rect x="19" y="33" width="1" height="1"/><rect x="23" y="33" width="1" height="1"/><rect x="24" y="33" width="1" height="1"/><rect x="26" y="33" width="1" height="1"/><rect x="32" y="33" width="1" height="1"/><rect x="36" y="33" width="1" height="1"/><rect x="38" y="33" width="1" height="1"/><rect x="4" y="34" width="1" height="1"/><rect x="5" y="34" width="1" height="1"/><rect x="6" y="34" width="1" height="1"/><rect x="7" y="34" width="1" height="1"/><rect x="8" y="34" width="1" height="1"/><rect x="9" y="34" width="1" height="1"/><rect x="10" y="34" width="1" height="1"/><rect x="12" y="34" width="1" height="1"/><rect x="13" y="34" width="1" height="1"/><rect x="14" y="34" width="1" height="1"/><rect x="16" y="34" width="1" height="1"/><rect x="19" y="34" width="1" height="1"/><rect x="20" y="34" width="1" height="1"/><rect x="23" y="34" width="1" height="1"/><rect x="25" y="34" width="1" height="1"/><rect x="26" y="34" width="1" height="1"/><rect x="27" y="34" width="1" height="1"/><rect x="32" y="34" width="1" height="1"/><rect x="34" y="34" width="1" height="1"/><rect x="36" y="34" width="1" height="1"/><rect x="40" y="34" width="1" height="1"/><rect x="4" y="35" width="1" height="1"/><rect x="10" y="35" width="1" height="1"/><rect x="12" y="35" width="1" height="1"/><rect x="13" y="35" width="1" height="1"/><rect x="15" y="35" width="1" height="1"/><rect x="17" y="35" width="1" height="1"/><rect x="18" y="35" width="1" height="1"/><rect x="19" y="35" width="1" height="1"/><rect x="20" y="35" width="1" height="1"/><rect x="21" y="35" width="1" height="1"/><rect x="22" y="35" width="1" height="1"/><rect x="23" y="35" width="1" height="1"/><rect x="24" y="35" width="1" height="1"/><rect x="27" y="35" width="1" height="1"/><rect x="29" y="35" width="1" height="1"/><rect x="31" y="35" width="1" height="1"/><rect x="32" y="35" width="1" height="1"/><rect x="36" y="35" width="1" height="1"/><rect x="39" y="35" width="1" height="1"/><rect x="4" y="36" width="1" height="1"/><rect x="6" y="36" width="1" height="1"/><rect x="7" y="36" width="1" height="1"/><rect x="8" y="36" width="1" height="1"/><rect x="10" y="36" width="1" height="1"/><rect x="12" y="36" width="1" height="1"/><rect x="13" y="36" width="1" height="1"/><rect x="15" y="36" width="1" height="1"/><rect x="17" y="36" width="1" height="1"/><rect x="19" y="36" width="1" height="1"/><rect x="25" y="36" width="1" height="1"/><rect x="26" y="36" width="1" height="1"/><rect x="27" y="36" width="1" height="1"/><rect x="28" y="36" width="1" height="1"/><rect x="31" y="36" width="1" height="1"/><rect x="32" y="36" width="1" height="1"/><rect x="33" y="36" width="1" height="1"/><rect x="34" y="36" width="1" height="1"/><rect x="35" y="36" width="1" height="1"/><rect x="36" y="36" width="1" height="1"/><rect x="40" y="36" width="1" height="1"/><rect x="4" y="37" width="1" height="1"/><rect x="6" y="37" width="1" height="1"/><rect x="7" y="37" width="1" height="1"/><rect x="8" y="37" width="1" height="1"/><rect x="10" y="37" width="1" height="1"/><rect x="12" y="37" width="1" height="1"/><rect x="15" y="37" width="1" height="1"/><rect x="18" y="37" width="1" height="1"/><rect x="20" y="37" width="1" height="1"/><rect x="22" y="37" width="1" height="1"/><rect x="26" y="37" width="1" height="1"/><rect x="27" y="37" width="1" height="1"/><rect x="28" y="37" width="1" height="1"/><rect x="34" y="37" width="1" height="1"/><rect x="40" y="37" width="1" height="1"/><rect x="4" y="38" width="1" height="1"/><rect x="6" y="38" width="1" height="1"/><rect x="7" y="38" width="1" height="1"/><rect x="8" y="38" width="1" height="1"/><rect x="10" y="38" width="1" height="1"/><rect x="13" y="38" width="1" height="1"/><rect x="15" y="38" width="1" height="1"/><rect x="16" y="38" width="1" height="1"/><rect x="17" y="38" width="1" height="1"/><rect x="19" y="38" width="1" height="1"/><rect x="20" y="38" width="1" height="1"/><rect x="21" y="38" width="1" height="1"/><rect x="22" y="38" width="1" height="1"/><rect x="23" y="38" width="1" height="1"/><rect x="24" y="38" width="1" height="1"/><rect x="25" y="38" width="1" height="1"/><rect x="26" y="38" width="1" height="1"/><rect x="27" y="38" width="1" height="1"/><rect x="29" y="38" width="1" height="1"/><rect x="30" y="38" width="1" height="1"/><rect x="32" y="38" width="1" height="1"/><rect x="33" y="38" width="1" height="1"/><rect x="36" y="38" width="1" height="1"/><rect x="40" y="38" width="1" height="1"/><rect x="4" y="39" width="1" height="1"/><rect x="10" y="39" width="1" height="1"/><rect x="13" y="39" width="1" height="1"/><rect x="14" y="39" width="1" height="1"/><rect x="17" y="39" width="1" height="1"/><rect x="20" y="39" width="1" height="1"/><rect x="21" y="39" width="1" height="1"/><rect x="23" y="39" width="1" height="1"/><rect x="24" y="39" width="1" height="1"/><rect x="26" y="39" width="1" height="1"/><rect x="30" y="39" width="1" height="1"/><rect x="31" y="39" width="1" height="1"/><rect x="36" y="39" width="1" height="1"/><rect x="37" y="39" width="1" height="1"/><rect x="38" y="39" width="1" height="1"/><rect x="39" y="39" width="1" height="1"/><rect x="40" y="39" width="1" height="1"/><rect x="4" y="40" width="1" height="1"/><rect x="5" y="40" width="1" height="1"/><rect x="6" y="40" width="1" height="1"/><rect x="7" y="40" width="1" height="1"/><rect x="8" y="40" width="1" height="1"/><rect x="9" y="40" width="1" height="1"/><rect x="10" y="40" width="1" height="1"/><rect x="12" y="40" width="1" height="1"/><rect x="13" y="40" width="1" height="1"/><rect x="15" y="40" width="1" height="1"/><rect x="18" y="40" width="1" height="1"/><rect x="19" y="40" width="1" height="1"/><rect x="20" y="40" width="1" height="1"/><rect x="22" y="40" width="1" height="1"/><rect x="24" y="40" width="1" height="1"/><rect x="27" y="40" width="1" height="1"/><rect x="28" y="40" width="1" height="1"/><rect x="31" y="40" width="1" height="1"/><rect x="32" y="40" width="1" height="1"/><rect x="33" y="40" width="1" height="1"/><rect x="35" y="40" width="1" height="1"/><rect x="37" y="40" width="1" height="1"/><rect x="40" y="40" width="1" height="1"/></g></svg>
    </g>
  </g>
  <text x="945" y="2170" text-anchor="middle" font-size="22" fill="#ffcf6b" font-family="Arial,sans-serif">Scan for directions</text>

  <text x="600" y="2280" text-anchor="middle" font-size="30" fill="#fff6e6" font-family="Arial,sans-serif" opacity="0.85">Thank you for your love, all these years 🙏</text>

  <!-- bottom border dots -->
  <g fill="url(#gold2)">
    <circle cx="200" cy="2340" r="12"/><circle cx="320" cy="2340" r="12"/><circle cx="440" cy="2340" r="12"/><circle cx="560" cy="2340" r="12"/><circle cx="680" cy="2340" r="12"/><circle cx="800" cy="2340" r="12"/><circle cx="920" cy="2340" r="12"/><circle cx="1000" cy="2340" r="12"/>
  </g>
</svg>
